HIERARCHY
ROOT joint_0
{
	OFFSET 0.000000 0.000000 0.000000
	CHANNELS 6 Xposition Yposition Zposition Zrotation Yrotation Xrotation 
	JOINT joint_1
	{
		OFFSET 6.579712 -2.778931 100.531982
		CHANNELS 3 Zrotation Yrotation Xrotation
		JOINT joint_2
		{
			OFFSET -3.313232 -1.302856 91.974976
			CHANNELS 3 Zrotation Yrotation Xrotation
			JOINT joint_3
			{
				OFFSET -3.421509 -1.641846 91.864014
				CHANNELS 3 Zrotation Yrotation Xrotation
				JOINT joint_4
				{
					OFFSET 7.697388 -4.642578 123.278931
					CHANNELS 3 Zrotation Yrotation Xrotation
					JOINT joint_5
					{
						OFFSET 24.842529 -5.941528 79.695068
						CHANNELS 3 Zrotation Yrotation Xrotation
						End Site
						{
							OFFSET 0.000000 0.000000 0.000000
						}
					}
				}
				JOINT joint_6
				{
					OFFSET -0.159668 -29.112976 68.364014
					CHANNELS 3 Zrotation Yrotation Xrotation
					JOINT joint_7
					{
						OFFSET -18.356079 -115.987061 -20.069092
						CHANNELS 3 Zrotation Yrotation Xrotation
						JOINT joint_8
						{
							OFFSET 31.719482 -11.733276 -267.170898
							CHANNELS 3 Zrotation Yrotation Xrotation
							JOINT joint_9
							{
								OFFSET 29.329956 -5.879517 -234.654053
								CHANNELS 3 Zrotation Yrotation Xrotation
								End Site
								{
									OFFSET 0.000000 0.000000 0.000000
								}
							}
						}
					}
				}
				JOINT joint_10
				{
					OFFSET 8.802979 23.897949 69.798950
					CHANNELS 3 Zrotation Yrotation Xrotation
					JOINT joint_11
					{
						OFFSET 21.159058 115.524292 -19.981934
						CHANNELS 3 Zrotation Yrotation Xrotation
						JOINT joint_12
						{
							OFFSET 18.809204 5.403442 -268.593018
							CHANNELS 3 Zrotation Yrotation Xrotation
							JOINT joint_13
							{
								OFFSET 20.807861 0.421265 -235.639038
								CHANNELS 3 Zrotation Yrotation Xrotation
								End Site
								{
									OFFSET 0.000000 0.000000 0.000000
								}
							}
						}
					}
				}
			}
		}
	}
	JOINT joint_14
	{
		OFFSET -9.713379 -79.513916 -99.348022
		CHANNELS 3 Zrotation Yrotation Xrotation
		JOINT joint_15
		{
			OFFSET -40.607788 -6.518372 -502.938019
			CHANNELS 3 Zrotation Yrotation Xrotation
			JOINT joint_16
			{
				OFFSET -19.807617 -7.437378 -399.590012
				CHANNELS 3 Zrotation Yrotation Xrotation
				JOINT joint_17
				{
					OFFSET 171.701660 -44.751282 -77.782000
					CHANNELS 3 Zrotation Yrotation Xrotation
					End Site
					{
						OFFSET 0.000000 0.000000 0.000000
					}
				}
			}
		}
	}
	JOINT joint_18
	{
		OFFSET 17.854858 79.618652 -98.128052
		CHANNELS 3 Zrotation Yrotation Xrotation
		JOINT joint_19
		{
			OFFSET -24.848877 16.861816 -503.722992
			CHANNELS 3 Zrotation Yrotation Xrotation
			JOINT joint_20
			{
				OFFSET -30.162476 14.470093 -398.750008
				CHANNELS 3 Zrotation Yrotation Xrotation
				JOINT joint_21
				{
					OFFSET 176.096680 -10.987549 -80.021000
					CHANNELS 3 Zrotation Yrotation Xrotation
					End Site
					{
						OFFSET 0.000000 0.000000 0.000000
					}
				}
			}
		}
	}
}
MOTION
Frames: 10
Frame Time: 0.016667
-1625.622437 1059.173096 1098.395996 -0.107306 0.071674 0.046728 -0.003529 0.158942 0.021407 -0.007012 -0.027270 -0.001989 -0.005723 0.031827 0.004244 -0.008261 -0.008392 0.024494 0.000000 0.000000 0.000000 -0.047513 -0.046346 -0.140751 0.024050 -0.107044 0.164551 -0.002841 -0.002204 -0.023168 0.000000 0.000000 0.000000 -0.018340 -0.236949 0.428902 -0.040201 -0.060146 -0.557021 -0.002206 -0.025084 -0.024470 0.000000 0.000000 0.000000 0.030972 -0.033597 -0.147702 0.007851 -0.015028 0.135671 0.015069 -0.035231 -0.002356 0.000000 0.000000 0.000000 0.050114 -0.039038 -0.034187 0.056170 0.039382 -0.103752 0.043991 -0.044038 0.017242 0.000000 0.000000 0.000000 
-1625.529419 1059.237061 1098.394043 -0.127469 0.079857 0.051752 -0.006119 0.163412 0.025241 -0.009872 -0.028279 -0.003516 -0.008427 0.033905 0.005463 -0.009057 -0.010142 0.026627 0.000000 0.000000 0.000000 -0.046405 -0.049001 -0.151098 0.025247 -0.112679 0.172939 -0.002811 -0.004574 -0.023409 0.000000 0.000000 0.000000 -0.018608 -0.254150 0.457269 -0.042854 -0.066077 -0.592430 -0.002166 -0.021694 -0.024088 0.000000 0.000000 0.000000 0.037302 -0.036243 -0.161872 0.012468 -0.020267 0.143145 0.019913 -0.037240 -0.000685 0.000000 0.000000 0.000000 0.057418 -0.039874 -0.040922 0.063436 0.037993 -0.110070 0.050531 -0.046364 0.020069 0.000000 0.000000 0.000000 
-1625.437744 1059.305908 1098.389038 -0.149383 0.086113 0.056993 -0.009181 0.169150 0.031360 -0.013333 -0.029475 -0.005716 -0.011726 0.035271 0.006339 -0.010000 -0.012571 0.029072 0.000000 0.000000 0.000000 -0.044611 -0.052061 -0.160198 0.026067 -0.117879 0.178426 -0.002665 -0.007896 -0.022908 0.000000 0.000000 0.000000 -0.016518 -0.270456 0.482783 -0.045347 -0.072507 -0.625152 -0.002145 -0.017496 -0.023929 0.000000 0.000000 0.000000 0.044237 -0.036740 -0.176326 0.017752 -0.026035 0.149982 0.025380 -0.039576 0.001182 0.000000 0.000000 0.000000 0.065439 -0.038390 -0.048701 0.071227 0.036381 -0.115294 0.057653 -0.049114 0.023134 0.000000 0.000000 0.000000 
-1625.346313 1059.375732 1098.385986 -0.170715 0.090862 0.061580 -0.013433 0.173105 0.038610 -0.018042 -0.031030 -0.008961 -0.016160 0.037334 0.008753 -0.009943 -0.014360 0.028462 0.000000 0.000000 0.000000 -0.039219 -0.054799 -0.170109 0.026859 -0.122260 0.183925 -0.002610 -0.010679 -0.023022 0.000000 0.000000 0.000000 -0.013909 -0.285190 0.505347 -0.047661 -0.078367 -0.655680 -0.002189 -0.014803 -0.024486 0.000000 0.000000 0.000000 0.051079 -0.036357 -0.189746 0.023074 -0.029935 0.156060 0.030899 -0.042512 0.002917 0.000000 0.000000 0.000000 0.073191 -0.036084 -0.056416 0.078721 0.036625 -0.119182 0.064492 -0.052824 0.026010 0.000000 0.000000 0.000000 
-1625.253784 1059.445679 1098.385010 -0.191360 0.093349 0.064825 -0.018553 0.174037 0.047002 -0.023556 -0.030295 -0.011412 -0.021572 0.036177 0.009960 -0.009812 -0.012094 0.028583 0.000000 0.000000 0.000000 -0.031043 -0.055855 -0.179993 0.027705 -0.124622 0.190305 -0.002688 -0.011223 -0.023759 0.000000 0.000000 0.000000 -0.011032 -0.297247 0.527043 -0.049821 -0.082016 -0.684634 -0.002423 -0.014096 -0.027150 0.000000 0.000000 0.000000 0.057843 -0.034838 -0.201139 0.028534 -0.030709 0.161187 0.036598 -0.046553 0.004446 0.000000 0.000000 0.000000 0.080729 -0.032511 -0.063341 0.086022 0.039531 -0.121750 0.071090 -0.058401 0.028660 0.000000 0.000000 0.000000 
-1625.160400 1059.516602 1098.385986 -0.211050 0.094935 0.067513 -0.024594 0.170580 0.055821 -0.029908 -0.027271 -0.013781 -0.027839 0.035072 0.011848 -0.009508 -0.009339 0.028267 0.000000 0.000000 0.000000 -0.021156 -0.056331 -0.190324 0.028523 -0.126188 0.196780 -0.002904 -0.011664 -0.025575 0.000000 0.000000 0.000000 -0.009317 -0.307993 0.546051 -0.051809 -0.084992 -0.711533 -0.002686 -0.014463 -0.030123 0.000000 0.000000 0.000000 0.064501 -0.032973 -0.211570 0.034009 -0.029816 0.165556 0.042320 -0.051068 0.005861 0.000000 0.000000 0.000000 0.087861 -0.028922 -0.070428 0.092903 0.044664 -0.122703 0.077288 -0.065114 0.031058 0.000000 0.000000 0.000000 
-1625.070801 1059.586304 1098.387939 -0.230569 0.096512 0.070036 -0.030124 0.167606 0.063673 -0.035729 -0.025697 -0.015755 -0.033596 0.033157 0.013258 -0.009368 -0.003636 0.029181 0.000000 0.000000 0.000000 -0.012823 -0.056128 -0.200019 0.029348 -0.127256 0.203321 -0.003026 -0.011254 -0.026466 0.000000 0.000000 0.000000 -0.008169 -0.318741 0.565053 -0.053843 -0.087663 -0.739621 -0.002734 -0.014110 -0.030673 0.000000 0.000000 0.000000 0.071060 -0.031834 -0.221627 0.039409 -0.027710 0.169699 0.047992 -0.056011 0.007142 0.000000 0.000000 0.000000 0.095199 -0.025280 -0.077902 0.099888 0.049099 -0.122465 0.083716 -0.071215 0.033598 0.000000 0.000000 0.000000 
-1624.987427 1059.657471 1098.392944 -0.250243 0.099391 0.072563 -0.034749 0.163710 0.070195 -0.040560 -0.025352 -0.016617 -0.038393 0.033441 0.013364 -0.009960 0.001859 0.032394 0.000000 0.000000 0.000000 -0.006984 -0.056119 -0.208548 0.030139 -0.128712 0.209573 -0.003005 -0.012037 -0.026455 0.000000 0.000000 0.000000 -0.009060 -0.331686 0.584941 -0.056094 -0.091360 -0.771504 -0.002250 -0.011478 -0.025237 0.000000 0.000000 0.000000 0.077459 -0.033263 -0.231983 0.044532 -0.023995 0.174321 0.053457 -0.061269 0.008247 0.000000 0.000000 0.000000 0.102801 -0.023148 -0.086390 0.107037 0.053019 -0.120563 0.090458 -0.076814 0.036312 0.000000 0.000000 0.000000 
-1624.907959 1059.727295 1098.397949 -0.269658 0.102005 0.074801 -0.038486 0.160205 0.075936 -0.044490 -0.025499 -0.017559 -0.042287 0.032173 0.013915 -0.010965 0.011250 0.037864 0.000000 0.000000 0.000000 -0.003997 -0.055095 -0.217380 0.031025 -0.129828 0.216558 -0.002953 -0.011782 -0.025992 0.000000 0.000000 0.000000 -0.013003 -0.344448 0.604453 -0.058369 -0.094208 -0.804539 -0.001560 -0.008690 -0.017484 0.000000 0.000000 0.000000 0.083822 -0.035216 -0.241774 0.049662 -0.018942 0.178662 0.058971 -0.067561 0.009105 0.000000 0.000000 0.000000 0.110449 -0.020923 -0.095094 0.114160 0.056870 -0.117520 0.097252 -0.082724 0.039031 0.000000 0.000000 0.000000 
-1624.825928 1059.790405 1098.401001 -0.285963 0.104589 0.077159 -0.043340 0.152817 0.080852 -0.049470 -0.023244 -0.019931 -0.047215 0.030282 0.014928 -0.011980 0.020115 0.043239 0.000000 0.000000 0.000000 0.001985 -0.053602 -0.224803 0.031819 -0.129677 0.223287 -0.002996 -0.011561 -0.026288 0.000000 0.000000 0.000000 -0.013990 -0.355832 0.621847 -0.060336 -0.097509 -0.832199 -0.001168 -0.006056 -0.013106 0.000000 0.000000 0.000000 0.089110 -0.035764 -0.250879 0.053867 -0.016109 0.182422 0.063457 -0.072070 0.009962 0.000000 0.000000 0.000000 0.117065 -0.018364 -0.103230 0.120251 0.059649 -0.114874 0.103071 -0.088136 0.041337 0.000000 0.000000 0.000000 
